Coordinates
version=1
nRows=12
nColumns=34
inDegrees=no

Units are S.I. units (second, meters, Newtons, ...)
If the header above contains a line with 'inDegrees', this indicates whether rotational values are in degrees (yes) or radians (no).

endheader
time	pelvis_tilt	pelvis_list	pelvis_rotation	pelvis_tx	pelvis_ty	pelvis_tz	hip_flexion_r	hip_adduction_r	hip_rotation_r	knee_angle_r	ankle_angle_r	subtalar_angle_r	mtp_angle_r	hip_flexion_l	hip_adduction_l	hip_rotation_l	knee_angle_l	ankle_angle_l	subtalar_angle_l	mtp_angle_l	lumbar_extension	lumbar_bending	lumbar_rotation	arm_flex_r	arm_add_r	arm_rot_r	elbow_flex_r	pro_sup_r	arm_flex_l	arm_add_l	arm_rot_l	elbow_flex_l	pro_sup_l
0	-0.226537	-0.0317264	-0.0387525	-0.163854	0.92745	-0.585437	0.207274	-0.0890078	-0.13333	0.039756	0.172925	0.0147461	-0.10001	0.226677	-0.211414	-0.341151	0.142247	0.349695	0.431161	-0.100031	0.220671	0.0174691	0.00997037	-0.102757	-0.107785	-0.1037	0.52378	1.47577	-0.0957178	-0.130801	-0.154606	0.51738	1.66489
0.01	-0.227299	-0.0313859	-0.0388911	-0.163907	0.927641	-0.585485	0.209666	-0.0895647	-0.138358	0.0428239	0.176632	0.0215339	-0.10001	0.227601	-0.211004	-0.34098	0.14213	0.34934	0.429936	-0.100031	0.221526	0.0172243	0.0100779	-0.102726	-0.10782	-0.103346	0.523529	1.47639	-0.0957694	-0.13098	-0.153667	0.517662	1.66285
0.02	-0.228016	-0.0310257	-0.0390365	-0.163961	0.927829	-0.585533	0.211961	-0.0901316	-0.14328	0.0457836	0.180215	0.0281893	-0.10001	0.228447	-0.210564	-0.340787	0.141962	0.348974	0.428715	-0.100031	0.222317	0.0169808	0.0102298	-0.102706	-0.107832	-0.103094	0.523326	1.47697	-0.0957747	-0.131128	-0.152839	0.517973	1.6607
0.03	-0.228687	-0.0306496	-0.0391884	-0.164014	0.928015	-0.585581	0.214147	-0.0907024	-0.148069	0.0486207	0.183657	0.0346739	-0.10001	0.229213	-0.210099	-0.340582	0.141748	0.348602	0.427509	-0.100031	0.223042	0.0167418	0.0104238	-0.102695	-0.107819	-0.102945	0.523168	1.47749	-0.0957337	-0.131242	-0.152131	0.518312	1.65845
0.04	-0.229301	-0.0302686	-0.0393451	-0.164066	0.928199	-0.585627	0.216189	-0.0912583	-0.15264	0.0512882	0.186903	0.040866	-0.10001	0.229894	-0.209627	-0.340389	0.141502	0.348235	0.426349	-0.100031	0.223692	0.0165167	0.0106545	-0.102692	-0.107781	-0.102891	0.523048	1.47794	-0.0956461	-0.131314	-0.151569	0.518675	1.65613
0.05	-0.229844	-0.0299013	-0.0395022	-0.164113	0.928382	-0.58567	0.218025	-0.0917657	-0.156835	0.0536971	0.189848	0.0465332	-0.10001	0.230486	-0.209178	-0.34025	0.141252	0.347894	0.425298	-0.100031	0.224255	0.0163203	0.010912	-0.102691	-0.107718	-0.102926	0.522957	1.4783	-0.0955108	-0.13133	-0.1512	0.519052	1.65385
0.06	-0.230295	-0.0295722	-0.0396526	-0.164155	0.928566	-0.585709	0.219568	-0.0921778	-0.160432	0.0557231	0.192344	0.0513417	-0.10001	0.230982	-0.208793	-0.340222	0.141034	0.347608	0.424449	-0.100031	0.224713	0.0161721	0.0111824	-0.102689	-0.107627	-0.103039	0.522893	1.47849	-0.0953261	-0.131273	-0.151082	0.519429	1.65174
0.07	-0.230633	-0.029309	-0.0397872	-0.164188	0.928753	-0.585742	0.220725	-0.0924408	-0.16318	0.0572279	0.194222	0.0549068	-0.10001	0.231381	-0.208518	-0.340371	0.140895	0.347414	0.423915	-0.100031	0.225047	0.0160936	0.0114488	-0.102687	-0.107506	-0.10322	0.522861	1.47846	-0.0950902	-0.131125	-0.15128	0.519785	1.64997
0.08	-0.230843	-0.0291381	-0.0398974	-0.164209	0.928943	-0.585767	0.221418	-0.0925043	-0.164862	0.0580933	0.195335	0.0568856	-0.10001	0.231685	-0.208398	-0.340755	0.140879	0.347346	0.423801	-0.100031	0.22524	0.0161062	0.0116947	-0.102684	-0.107354	-0.103458	0.522884	1.47814	-0.0948019	-0.130872	-0.151844	0.520096	1.64872
0.09	-0.230921	-0.0290786	-0.0399775	-0.164219	0.929137	-0.585781	0.221614	-0.0923351	-0.165367	0.0582673	0.195611	0.0570995	-0.10001	0.231904	-0.208463	-0.34141	0.141015	0.347423	0.424166	-0.100031	0.225289	0.0162263	0.0119066	-0.102688	-0.107172	-0.10375	0.522998	1.47751	-0.0944612	-0.130512	-0.152776	0.520338	1.64809
0.1	-0.230882	-0.0291353	-0.0400271	-0.164218	0.929334	-0.585786	0.22136	-0.0919341	-0.164772	0.0578084	0.195111	0.0556552	-0.10001	0.23206	-0.20872	-0.342325	0.141309	0.347642	0.424995	-0.100031	0.225209	0.016461	0.0120776	-0.10271	-0.106966	-0.104096	0.52326	1.4766	-0.094071	-0.130061	-0.154009	0.520488	1.64808
0.11	-0.230761	-0.0292935	-0.0400523	-0.164211	0.929532	-0.585782	0.22079	-0.0913455	-0.16338	0.0569072	0.194056	0.0530049	-0.10001	0.232185	-0.209142	-0.343434	0.141738	0.347971	0.426175	-0.100031	0.225036	0.0168039	0.0122087	-0.102764	-0.106748	-0.104501	0.523738	1.47552	-0.0936382	-0.129552	-0.155402	0.520541	1.6485
